<svg width="84" height="51" viewBox="0 0 84 51" fill="none" xmlns="http://www.w3.org/2000/svg">
<path d="M63.9947 0C59.5737 0 55.8158 2.21739 52.6105 6.76304C49.2947 11.4196 46.8632 17.9609 44.5421 24.2804C43.7684 26.387 42.9947 28.4935 42.1105 30.6C41.3368 28.4935 40.4526 26.387 39.6789 24.2804C37.3579 17.9609 34.9263 11.4196 31.6105 6.76304C28.4053 2.32826 24.5368 0 20.2263 0H0V7.42826C1.21579 7.42826 3.09474 7.76087 5.41579 11.087C8.17895 14.8565 10.3895 20.9544 12.4895 26.8304C14.4789 32.3739 16.5789 38.0283 19.3421 42.463C22.8789 48.2283 26.9684 51 32.0526 51C34.4842 51 36.5842 50.3348 38.2421 49.2261C36.6947 47.3413 35.4789 45.2348 34.2632 43.0174C33.3789 43.4609 32.6053 43.5717 32.0526 43.5717C26.6368 43.5717 22.8789 33.2609 19.4526 24.1696C17.2421 18.1826 14.9211 11.9739 11.8263 7.31739H20.1158C21.3316 7.31739 23.2105 7.65 25.5316 10.9761C28.2947 14.7457 30.5053 20.8435 32.6053 26.7196C34.1526 30.9326 35.7 35.1457 37.5789 38.9152C38.9053 41.4652 40.3421 43.9044 41.8895 46.0109C44.1 48.5609 47.4158 51 51.9474 51C56.9211 51 61.1211 48.2283 64.6579 42.463C67.3105 38.0283 69.4105 32.3739 71.5105 26.8304C73.721 20.9544 75.9316 14.8565 78.5842 11.087C80.9053 7.87174 82.7842 7.42826 84 7.42826V0H63.9947ZM64.7684 24.2804C61.4526 33.3717 57.6947 43.6826 52.1684 43.6826C50.8421 43.6826 48.8526 43.2391 46.3105 39.4696C48.1895 35.7 49.8474 31.2652 51.3947 26.9413C53.6053 21.0652 55.8158 14.9674 58.4684 11.1978C60.7895 7.98261 62.6684 7.53913 63.8842 7.53913H72.1737C69.3 11.9739 66.9789 18.1826 64.7684 24.2804Z" fill="#F1F0F1"/>
</svg>
