<svg xmlns="http://www.w3.org/2000/svg" fill="none" viewBox="0 0 84 51">
  <style>
    path { fill: #212627; }
    @media (prefers-color-scheme: dark) {
      path { fill: #F1F0F1; }
    }
  </style>
  <path d="M64 0c-4.4 0-8.2 2.2-11.4 6.8a77.7 77.7 0 0 0-8 17.5L42 30.6l-2.4-6.3a77.7 77.7 0 0 0-8-17.5C28.3 2.3 24.4 0 20.1 0H0v7.4c1.2 0 3 .4 5.4 3.7 2.8 3.8 5 9.9 7 15.7 2 5.6 4.2 11.2 7 15.7C22.8 48.2 27 51 32 51a11 11 0 0 0 6.1-1.8c-1.5-1.9-2.7-4-4-6.2a5 5 0 0 1-2.1.6c-5.5 0-9.2-10.3-12.6-19.4-2.3-6-4.6-12.2-7.7-16.9H20c1.2 0 3.1.4 5.4 3.7a64 64 0 0 1 7.1 15.7c1.6 4.2 3.1 8.4 5 12.2 1.3 2.6 2.7 5 4.3 7.1a13 13 0 0 0 10 5c5 0 9.2-2.8 12.8-8.5a109 109 0 0 0 6.8-15.7c2.2-5.8 4.4-12 7-15.7C81 7.9 82.9 7.4 84 7.4V0H64Zm.8 24.3c-3.3 9-7.1 19.4-12.6 19.4-1.4 0-3.3-.5-5.9-4.2 1.9-3.8 3.5-8.2 5-12.6 2.3-5.8 4.5-12 7.2-15.7 2.3-3.2 4.2-3.7 5.4-3.7h8.3a87.3 87.3 0 0 0-7.4 16.8Z"/>
</svg>
